<?xml version="1.0" standalone="no"?>
<!DOCTYPE svg PUBLIC "-//W3C//DTD SVG 20010904//EN"
 "http://www.w3.org/TR/2001/REC-SVG-20010904/DTD/svg10.dtd">
<svg version="1.0" xmlns="http://www.w3.org/2000/svg"
 width="928.000000pt" height="928.000000pt" viewBox="0 0 928.000000 928.000000"
 preserveAspectRatio="xMidYMid meet">
<metadata>
Created by potrace 1.14, written by Peter Selinger 2001-2017
</metadata>
<g transform="translate(0.000000,928.000000) scale(0.100000,-0.100000)"
fill="#000000" stroke="none">
<path d="M4379 9116 c-2 -2 -56 -7 -119 -10 -63 -4 -126 -9 -140 -10 -14 -2
-56 -7 -95 -10 -38 -4 -83 -10 -100 -13 -16 -3 -41 -6 -55 -8 -14 -2 -38 -5
-55 -8 -16 -3 -50 -9 -75 -12 -25 -3 -54 -9 -65 -13 -11 -3 -29 -7 -40 -7 -11
-1 -31 -4 -45 -8 -14 -3 -92 -23 -175 -43 -82 -20 -154 -37 -160 -38 -5 -2
-23 -8 -38 -14 -16 -7 -32 -12 -37 -12 -20 0 -313 -105 -405 -146 -22 -10 -43
-17 -47 -16 -5 1 -8 -3 -8 -10 0 -6 -3 -9 -6 -5 -4 3 -25 -4 -48 -15 -22 -12
-43 -22 -46 -23 -6 -1 -220 -109 -275 -138 -22 -12 -41 -25 -43 -29 -2 -5 -7
-8 -12 -8 -7 0 -114 -62 -199 -115 -37 -24 -169 -113 -211 -143 -84 -60 -93
-67 -129 -94 -71 -55 -215 -173 -270 -223 -87 -78 -327 -321 -391 -395 -35
-41 -71 -82 -80 -91 -8 -9 -22 -27 -30 -39 -8 -13 -25 -32 -38 -43 -12 -11
-22 -26 -22 -33 0 -7 -4 -14 -8 -16 -5 -1 -28 -30 -53 -63 -24 -33 -48 -64
-52 -70 -5 -5 -17 -23 -27 -40 -11 -16 -51 -77 -90 -135 -39 -58 -73 -112 -77
-120 -4 -8 -27 -49 -51 -90 -56 -94 -198 -377 -217 -430 -1 -3 -6 -16 -12 -30
-24 -55 -55 -136 -57 -145 -1 -5 -7 -19 -14 -31 -6 -11 -13 -33 -16 -48 -3
-15 -10 -34 -17 -42 -6 -8 -9 -14 -5 -14 3 0 -3 -22 -14 -50 -11 -27 -17 -50
-14 -50 4 0 2 -6 -3 -12 -6 -7 -22 -62 -38 -123 -15 -60 -30 -117 -33 -125 -7
-20 -9 -28 -16 -74 -3 -21 -8 -41 -10 -45 -2 -3 -7 -22 -10 -41 -3 -19 -8 -48
-11 -65 -55 -300 -70 -482 -69 -840 0 -231 5 -360 20 -490 11 -97 22 -190 28
-225 11 -73 17 -108 21 -130 4 -21 17 -83 20 -100 1 -3 5 -25 10 -50 5 -25 9
-47 10 -50 1 -3 5 -18 9 -35 40 -168 107 -387 163 -535 79 -209 225 -516 321
-674 23 -37 42 -72 42 -77 0 -5 5 -9 12 -9 6 0 9 -3 5 -6 -3 -3 -1 -11 4 -18
6 -6 44 -62 84 -124 72 -109 218 -307 269 -365 14 -16 40 -47 58 -69 114 -141
386 -408 543 -534 33 -27 65 -53 72 -59 44 -37 163 -125 169 -125 3 0 12 -7
20 -14 15 -16 300 -206 308 -206 2 0 39 -20 80 -45 42 -25 79 -45 81 -45 3 0
23 -11 45 -25 22 -14 46 -25 53 -25 7 0 19 -6 26 -12 6 -7 15 -13 19 -14 4 0
41 -16 82 -36 107 -50 184 -82 270 -113 41 -15 84 -30 95 -35 31 -13 177 -60
205 -66 14 -2 34 -8 45 -11 11 -4 22 -7 25 -8 3 -1 57 -14 120 -29 140 -34
160 -39 183 -40 9 0 17 -4 17 -9 0 -4 4 -6 9 -3 4 3 42 -1 82 -8 66 -12 115
-20 214 -31 17 -2 30 -4 30 -5 0 0 18 -3 40 -4 381 -32 789 -28 1060 10 22 3
54 7 70 9 45 6 107 17 130 22 19 4 32 6 95 17 14 3 26 5 28 7 2 2 6 3 52 12
59 12 73 15 135 32 33 9 67 18 75 20 8 2 67 20 130 41 63 21 117 38 120 39 3
0 15 6 28 13 12 7 22 10 22 8 0 -3 28 7 63 23 34 15 67 29 72 31 6 1 21 7 35
13 14 6 27 11 30 12 3 1 22 9 42 19 21 9 41 16 44 15 4 0 10 3 13 8 3 4 39 24
80 43 41 19 79 40 85 45 6 6 31 20 56 33 25 13 54 28 65 35 11 7 43 26 70 42
28 16 55 33 60 37 6 5 48 35 95 67 47 33 90 63 95 68 6 4 30 24 55 43 25 19
47 37 50 40 3 3 39 34 80 70 135 117 390 384 390 409 0 3 9 13 20 21 11 8 20
20 20 26 0 7 4 14 8 16 13 5 105 147 142 220 l34 66 182 1 182 0 0 -682 c1
-375 1 -688 1 -694 1 -10 143 -13 676 -13 l676 0 -4 2278 c-2 1252 -6 2297
-10 2322 -3 25 -9 77 -12 115 -3 39 -8 84 -11 100 -2 17 -6 50 -9 75 -5 39
-10 69 -32 190 -16 92 -39 192 -69 305 -18 72 -36 141 -40 155 -3 14 -10 34
-15 45 -4 11 -18 49 -29 85 -12 36 -24 72 -27 80 -4 8 -7 18 -8 23 -2 4 -4 9
-5 12 -1 3 -3 8 -5 13 -4 15 -18 49 -41 100 -13 29 -24 57 -24 62 0 5 -9 25
-20 45 -11 19 -18 35 -15 35 8 0 -190 379 -204 390 -3 3 -12 16 -19 30 -15 32
-33 60 -49 78 -7 7 -13 20 -13 28 0 8 -3 14 -8 14 -4 0 -16 16 -26 35 -11 19
-23 35 -28 35 -4 0 -8 6 -8 13 0 7 -9 23 -20 35 -11 12 -20 24 -20 26 0 5 -37
58 -78 111 -107 141 -115 151 -155 198 -10 12 -37 44 -60 71 -101 120 -259
279 -442 445 -16 15 -79 66 -140 114 -60 49 -120 96 -132 106 -12 10 -25 16
-28 13 -3 -3 -5 0 -5 7 0 6 -11 16 -25 21 -14 5 -25 14 -25 20 0 5 -4 10 -8
10 -4 0 -66 39 -137 86 -72 47 -159 102 -195 122 -36 20 -71 42 -78 49 -7 7
-17 13 -21 13 -5 0 -64 29 -132 65 -68 36 -129 65 -136 65 -7 0 -13 5 -13 10
0 6 -3 9 -7 8 -5 -1 -35 11 -68 26 -108 49 -296 123 -370 145 -22 7 -49 16
-60 21 -11 5 -40 15 -65 21 -54 15 -51 14 -70 22 -17 6 -153 43 -191 51 -13 3
-51 12 -84 20 -33 8 -73 17 -90 20 -16 3 -52 10 -80 16 -112 21 -220 39 -280
44 -22 3 -40 5 -40 6 0 2 -46 7 -125 14 -25 2 -45 5 -45 6 0 7 -738 23 -746
16z m291 -1316 c8 5 17 7 20 5 3 -2 57 -6 120 -10 155 -8 281 -20 340 -31 14
-3 39 -7 55 -9 17 -3 41 -7 55 -10 14 -3 41 -8 60 -11 19 -4 60 -13 90 -21 30
-8 66 -17 80 -20 40 -8 41 -8 135 -37 50 -16 95 -31 100 -35 6 -3 12 -6 15 -6
59 -8 405 -168 530 -246 14 -9 54 -33 90 -54 36 -21 67 -42 68 -47 2 -4 8 -8
13 -8 8 0 128 -83 184 -127 43 -34 114 -92 135 -110 14 -12 36 -31 50 -43 109
-92 296 -294 390 -419 14 -18 35 -45 46 -59 33 -41 159 -233 179 -272 10 -19
21 -37 24 -40 3 -3 19 -32 36 -65 16 -33 32 -62 35 -65 9 -8 41 -84 40 -94 -1
-5 3 -12 8 -15 24 -15 182 -450 182 -500 0 -9 5 -22 12 -29 7 -7 9 -12 6 -12
-3 0 -2 -17 3 -37 5 -21 12 -49 14 -63 3 -14 8 -36 11 -50 4 -14 8 -36 10 -50
2 -14 6 -40 9 -58 24 -130 38 -316 38 -507 0 -187 -8 -318 -27 -440 -2 -16 -7
-50 -11 -75 -3 -25 -7 -52 -9 -60 -1 -8 -6 -31 -10 -50 -4 -19 -9 -44 -11 -55
-2 -11 -4 -20 -5 -20 -1 0 -3 -9 -5 -20 -5 -36 -24 -109 -39 -152 -8 -24 -13
-43 -11 -43 11 0 -106 -309 -141 -372 -8 -16 -12 -28 -7 -28 4 0 4 -4 -2 -8
-5 -4 -28 -43 -49 -87 -49 -101 -146 -268 -160 -277 -6 -4 -7 -8 -3 -8 4 0 3
-6 -3 -13 -5 -6 -44 -59 -85 -117 -41 -58 -87 -120 -102 -139 -16 -18 -36 -43
-46 -55 -97 -119 -271 -292 -396 -395 -35 -29 -71 -59 -78 -67 -8 -8 -18 -14
-22 -14 -4 0 -16 -8 -27 -18 -42 -39 -336 -232 -354 -232 -5 0 -10 -3 -12 -8
-5 -11 -258 -135 -368 -180 -87 -36 -260 -96 -306 -107 -10 -2 -53 -13 -94
-25 -41 -11 -87 -22 -103 -25 -15 -3 -60 -12 -100 -21 -39 -9 -92 -17 -117
-19 -25 -2 -56 -6 -70 -10 -39 -8 -178 -19 -252 -20 -38 0 -68 -2 -68 -5 0
-10 -365 1 -485 14 -16 2 -59 7 -95 11 -36 4 -74 9 -85 12 -11 3 -33 6 -50 8
-16 2 -30 4 -30 5 0 1 -11 3 -25 5 -14 2 -47 9 -75 15 -27 6 -58 13 -68 15
-10 2 -52 14 -95 25 -42 12 -84 23 -92 26 -27 6 -194 65 -225 78 -16 8 -55 24
-85 36 -61 25 -255 123 -338 170 -72 41 -317 204 -332 221 -3 3 -23 18 -45 35
-21 16 -46 36 -55 44 -9 8 -35 31 -59 50 -64 51 -278 264 -340 340 -30 36 -57
67 -60 70 -4 3 -22 26 -41 53 -18 26 -37 47 -42 47 -4 0 -8 6 -8 14 0 8 -6 21
-13 28 -22 23 -107 149 -107 158 0 6 -3 10 -7 10 -5 0 -13 10 -19 23 -30 60
-59 107 -66 107 -4 0 -8 9 -8 19 0 11 -3 21 -8 23 -7 3 -132 251 -132 262 0 3
-5 17 -12 33 -6 15 -12 30 -13 33 -1 3 -7 19 -14 35 -19 46 -52 138 -58 160
-3 11 -7 27 -10 35 -3 8 -7 20 -9 25 -1 6 -14 52 -28 104 -14 52 -32 130 -40
175 -8 45 -18 95 -21 111 -10 57 -21 146 -31 265 -11 116 -6 575 6 575 0 0 3
25 5 55 2 30 7 71 10 90 6 33 12 66 19 115 2 11 6 34 10 50 3 17 8 44 10 62 3
18 7 36 10 41 3 5 7 19 9 33 9 45 28 113 64 219 19 58 36 110 37 115 2 6 8 21
14 35 6 14 25 59 43 100 45 106 144 305 159 320 3 3 14 21 24 40 28 52 144
228 188 285 21 28 46 60 56 73 9 12 22 28 28 35 5 6 38 44 72 84 68 79 214
226 286 288 25 22 59 51 75 65 57 50 71 60 81 60 6 0 10 4 10 8 0 7 117 95
169 127 9 6 36 24 61 40 25 16 48 28 53 27 4 -1 7 2 7 7 0 5 12 16 28 24 79
41 118 63 122 68 3 3 23 14 45 25 22 10 43 22 46 27 3 5 10 9 15 9 5 0 34 11
64 25 53 24 81 36 153 67 17 8 68 26 112 41 44 15 89 31 100 36 16 7 74 24
120 35 6 1 39 10 75 19 101 25 173 40 245 50 17 3 46 7 65 10 19 3 55 8 80 11
25 2 61 7 80 9 19 2 98 7 175 11 77 3 142 8 144 9 1 2 13 0 25 -5 13 -4 29 -4
36 0z"/>
</g>
</svg>
